<svg width="132" height="32" viewBox="0 0 132 32" fill="none" xmlns="http://www.w3.org/2000/svg">
<path d="M3.02813 17.6152H7V14.6027C7 14.4227 7.00562 14.2463 7.01687 14.0734C5.16875 12.3309 5.00125 10.034 5 7.63587C5 7.09774 5.415 6.63587 5.95312 6.61024C6.08807 6.60391 6.22291 6.62499 6.34949 6.6722C6.47607 6.71942 6.59177 6.79179 6.6896 6.88495C6.78744 6.97812 6.86539 7.09014 6.91873 7.21426C6.97208 7.33838 6.99973 7.47202 7 7.60712C7 9.35712 7.11625 10.6165 7.61875 11.5971C8.82 9.02524 11.73 7.60274 16 7.60274C18.4875 7.60274 20.6369 8.17337 22.2144 9.25212C23.1456 9.88899 23.8519 10.684 24.3206 11.6096C24.875 10.6477 25 9.41962 25 7.63587C25 7.09774 25.4125 6.63587 25.95 6.60837C26.0854 6.60159 26.2207 6.6224 26.3478 6.66953C26.4748 6.71667 26.591 6.78914 26.6892 6.88255C26.7874 6.97596 26.8656 7.08835 26.919 7.21291C26.9724 7.33747 27 7.47159 27 7.60712C27 9.95899 26.8369 12.2152 24.9725 13.959C24.9904 14.1698 24.9996 14.3844 25 14.6027V17.6152H28.9719C29.51 17.6152 29.9719 18.029 29.9987 18.5671C30.0053 18.7024 29.9842 18.8377 29.9369 18.9646C29.8896 19.0915 29.8169 19.2075 29.7234 19.3055C29.6299 19.4036 29.5175 19.4816 29.3929 19.5348C29.2683 19.588 29.1342 19.6154 28.9987 19.6152H24.9987V20.6071C24.9997 21.757 24.7792 22.8962 24.3494 23.9627C25.9537 25.3971 26.9887 26.9821 27 29.5659C27 30.1121 26.5862 30.5846 26.04 30.6065C25.9054 30.6119 25.7711 30.59 25.6452 30.5422C25.5192 30.4944 25.4042 30.4217 25.3071 30.3283C25.21 30.235 25.1327 30.123 25.0799 29.9991C25.0272 29.8751 25 29.7418 25 29.6071C25 27.8784 24.4312 26.8127 23.3644 25.7746C22.1341 27.5258 20.3214 28.7827 18.25 29.3209C18.1022 29.359 17.9477 29.3628 17.7982 29.3321C17.6488 29.3013 17.5083 29.2367 17.3877 29.1432C17.267 29.0498 17.1694 28.93 17.1022 28.7929C17.035 28.6559 17 28.5054 17 28.3527V12.6352C17 12.0971 16.5863 11.6352 16.0481 11.6084C15.9129 11.6019 15.7778 11.6229 15.6509 11.6701C15.5241 11.7174 15.4081 11.7899 15.3102 11.8833C15.2122 11.9766 15.1341 12.0889 15.0808 12.2134C15.0275 12.3378 15 12.4718 15 12.6071V28.3527C15 28.5054 14.965 28.6559 14.8978 28.7929C14.8306 28.93 14.733 29.0498 14.6123 29.1432C14.4917 29.2367 14.3512 29.3013 14.2018 29.3321C14.0523 29.3628 13.8978 29.359 13.75 29.3209C11.6789 28.7824 9.86649 27.5256 8.63625 25.7746C7.57375 26.8084 7.00563 27.8696 7.00063 29.584C7.00288 29.8426 6.90656 30.0923 6.73124 30.2823C6.55592 30.4724 6.31478 30.5885 6.05688 30.6071C5.92085 30.6149 5.78467 30.5947 5.6567 30.548C5.52874 30.5012 5.41167 30.4288 5.31271 30.3351C5.21374 30.2415 5.13495 30.1286 5.08118 30.0034C5.0274 29.8782 4.99978 29.7434 5 29.6071C5 27.0021 6.0375 25.4052 7.64938 23.9627C7.21955 22.8962 6.99908 21.757 7 20.6071V19.6152H3C2.86453 19.6154 2.73044 19.588 2.60587 19.5348C2.48129 19.4816 2.36884 19.4036 2.27532 19.3055C2.1818 19.2075 2.10918 19.0915 2.06185 18.9646C2.01452 18.8377 1.99348 18.7024 2 18.5671C2.02625 18.029 2.49 17.6152 3.02813 17.6152Z" fill="black"/>
<path d="M11.9131 6.5L11.8931 6.50562C11.045 6.74312 10.3262 5.84625 10.7556 5.0775C11.2745 4.14517 12.033 3.36835 12.9527 2.82731C13.8724 2.28628 14.9199 2.00067 15.9869 2H16.0131C17.0909 2.00073 18.1485 2.29215 19.0746 2.84355C20.0006 3.39496 20.7608 4.18592 21.275 5.13312C21.7025 5.91937 20.9537 6.82062 20.0975 6.56187C18.8656 6.18687 17.4856 5.99563 16 5.99563C14.4944 5.99563 13.1194 6.16563 11.9131 6.5Z" fill="black"/>
<path d="M46.792 16.24C47.4427 16.3787 47.9653 16.704 48.36 17.216C48.7547 17.7173 48.952 18.2933 48.952 18.944C48.952 19.8827 48.6213 20.6293 47.96 21.184C47.3093 21.728 46.3973 22 45.224 22H39.992V10.768H45.048C46.1893 10.768 47.08 11.0293 47.72 11.552C48.3707 12.0747 48.696 12.784 48.696 13.68C48.696 14.3413 48.52 14.8907 48.168 15.328C47.8267 15.7653 47.368 16.0693 46.792 16.24ZM42.728 15.312H44.52C44.968 15.312 45.3093 15.216 45.544 15.024C45.7893 14.8213 45.912 14.528 45.912 14.144C45.912 13.76 45.7893 13.4667 45.544 13.264C45.3093 13.0613 44.968 12.96 44.52 12.96H42.728V15.312ZM44.744 19.792C45.2027 19.792 45.5547 19.6907 45.8 19.488C46.056 19.2747 46.184 18.9707 46.184 18.576C46.184 18.1813 46.0507 17.872 45.784 17.648C45.528 17.424 45.1707 17.312 44.712 17.312H42.728V19.792H44.744ZM59.0349 13.072V22H56.2989V20.784C56.0215 21.1787 55.6429 21.4987 55.1629 21.744C54.6935 21.9787 54.1709 22.096 53.5949 22.096C52.9122 22.096 52.3095 21.9467 51.7869 21.648C51.2642 21.3387 50.8589 20.896 50.5709 20.32C50.2829 19.744 50.1389 19.0667 50.1389 18.288V13.072H52.8589V17.92C52.8589 18.5173 53.0135 18.9813 53.3229 19.312C53.6322 19.6427 54.0482 19.808 54.5709 19.808C55.1042 19.808 55.5255 19.6427 55.8349 19.312C56.1442 18.9813 56.2989 18.5173 56.2989 17.92V13.072H59.0349ZM64.0721 12.944C64.7015 12.944 65.2508 13.072 65.7201 13.328C66.2001 13.584 66.5681 13.92 66.8241 14.336V13.072H69.5601V21.984C69.5601 22.8053 69.3948 23.5467 69.0641 24.208C68.7441 24.88 68.2481 25.4133 67.5761 25.808C66.9148 26.2027 66.0881 26.4 65.0961 26.4C63.7735 26.4 62.7015 26.0853 61.8801 25.456C61.0588 24.8373 60.5895 23.9947 60.4721 22.928H63.1761C63.2615 23.2693 63.4641 23.536 63.7841 23.728C64.1041 23.9307 64.4988 24.032 64.9681 24.032C65.5335 24.032 65.9815 23.8667 66.3121 23.536C66.6535 23.216 66.8241 22.6987 66.8241 21.984V20.72C66.5575 21.136 66.1895 21.4773 65.7201 21.744C65.2508 22 64.7015 22.128 64.0721 22.128C63.3361 22.128 62.6695 21.9413 62.0721 21.568C61.4748 21.184 61.0001 20.6453 60.6481 19.952C60.3068 19.248 60.1361 18.4373 60.1361 17.52C60.1361 16.6027 60.3068 15.7973 60.6481 15.104C61.0001 14.4107 61.4748 13.8773 62.0721 13.504C62.6695 13.1307 63.3361 12.944 64.0721 12.944ZM66.8241 17.536C66.8241 16.8533 66.6321 16.3147 66.2481 15.92C65.8748 15.5253 65.4161 15.328 64.8721 15.328C64.3281 15.328 63.8641 15.5253 63.4801 15.92C63.1068 16.304 62.9201 16.8373 62.9201 17.52C62.9201 18.2027 63.1068 18.7467 63.4801 19.152C63.8641 19.5467 64.3281 19.744 64.8721 19.744C65.4161 19.744 65.8748 19.5467 66.2481 19.152C66.6321 18.7573 66.8241 18.2187 66.8241 17.536ZM79.2661 19.68V22H77.8741C76.8821 22 76.1088 21.76 75.5541 21.28C74.9995 20.7893 74.7221 19.9947 74.7221 18.896V15.344H73.6341V13.072H74.7221V10.896H77.4581V13.072H79.2501V15.344H77.4581V18.928C77.4581 19.1947 77.5221 19.3867 77.6501 19.504C77.7781 19.6213 77.9915 19.68 78.2901 19.68H79.2661ZM83.2061 14.56C83.5261 14.0693 83.9261 13.6853 84.4061 13.408C84.8861 13.12 85.4195 12.976 86.0061 12.976V15.872H85.2541C84.5715 15.872 84.0595 16.0213 83.7181 16.32C83.3768 16.608 83.2061 17.12 83.2061 17.856V22H80.4701V13.072H83.2061V14.56ZM86.4499 17.52C86.4499 16.6027 86.6205 15.7973 86.9619 15.104C87.3139 14.4107 87.7885 13.8773 88.3859 13.504C88.9832 13.1307 89.6499 12.944 90.3859 12.944C91.0152 12.944 91.5645 13.072 92.0339 13.328C92.5139 13.584 92.8819 13.92 93.1379 14.336V13.072H95.8739V22H93.1379V20.736C92.8712 21.152 92.4979 21.488 92.0179 21.744C91.5485 22 90.9992 22.128 90.3699 22.128C89.6445 22.128 88.9832 21.9413 88.3859 21.568C87.7885 21.184 87.3139 20.6453 86.9619 19.952C86.6205 19.248 86.4499 18.4373 86.4499 17.52ZM93.1379 17.536C93.1379 16.8533 92.9459 16.3147 92.5619 15.92C92.1885 15.5253 91.7299 15.328 91.1859 15.328C90.6419 15.328 90.1779 15.5253 89.7939 15.92C89.4205 16.304 89.2339 16.8373 89.2339 17.52C89.2339 18.2027 89.4205 18.7467 89.7939 19.152C90.1779 19.5467 90.6419 19.744 91.1859 19.744C91.7299 19.744 92.1885 19.5467 92.5619 19.152C92.9459 18.7573 93.1379 18.2187 93.1379 17.536ZM96.9892 17.536C96.9892 16.608 97.1759 15.7973 97.5492 15.104C97.9332 14.4107 98.4612 13.8773 99.1332 13.504C99.8159 13.1307 100.595 12.944 101.469 12.944C102.589 12.944 103.523 13.2373 104.269 13.824C105.027 14.4107 105.523 15.2373 105.757 16.304H102.845C102.6 15.6213 102.125 15.28 101.421 15.28C100.92 15.28 100.52 15.4773 100.221 15.872C99.9226 16.256 99.7732 16.8107 99.7732 17.536C99.7732 18.2613 99.9226 18.8213 100.221 19.216C100.52 19.6 100.92 19.792 101.421 19.792C102.125 19.792 102.6 19.4507 102.845 18.768H105.757C105.523 19.8133 105.027 20.6347 104.269 21.232C103.512 21.8293 102.579 22.128 101.469 22.128C100.595 22.128 99.8159 21.9413 99.1332 21.568C98.4612 21.1947 97.9332 20.6613 97.5492 19.968C97.1759 19.2747 96.9892 18.464 96.9892 17.536ZM112.357 22L109.637 18.256V22H106.901V10.16H109.637V16.704L112.341 13.072H115.717L112.005 17.552L115.749 22H112.357ZM124.887 17.392C124.887 17.648 124.871 17.9147 124.839 18.192H118.647C118.69 18.7467 118.866 19.1733 119.175 19.472C119.495 19.76 119.885 19.904 120.343 19.904C121.026 19.904 121.501 19.616 121.767 19.04H124.679C124.53 19.6267 124.258 20.1547 123.863 20.624C123.479 21.0933 122.994 21.4613 122.407 21.728C121.821 21.9947 121.165 22.128 120.439 22.128C119.565 22.128 118.786 21.9413 118.103 21.568C117.421 21.1947 116.887 20.6613 116.503 19.968C116.119 19.2747 115.927 18.464 115.927 17.536C115.927 16.608 116.114 15.7973 116.487 15.104C116.871 14.4107 117.405 13.8773 118.087 13.504C118.77 13.1307 119.554 12.944 120.439 12.944C121.303 12.944 122.071 13.1253 122.743 13.488C123.415 13.8507 123.938 14.368 124.311 15.04C124.695 15.712 124.887 16.496 124.887 17.392ZM122.087 16.672C122.087 16.2027 121.927 15.8293 121.607 15.552C121.287 15.2747 120.887 15.136 120.407 15.136C119.949 15.136 119.559 15.2693 119.239 15.536C118.93 15.8027 118.738 16.1813 118.663 16.672H122.087ZM128.747 14.56C129.067 14.0693 129.467 13.6853 129.947 13.408C130.427 13.12 130.96 12.976 131.547 12.976V15.872H130.795C130.112 15.872 129.6 16.0213 129.259 16.32C128.917 16.608 128.747 17.12 128.747 17.856V22H126.011V13.072H128.747V14.56Z" fill="black"/>
</svg>
