<svg width="32" height="32" viewBox="0 0 32 32" fill="none" xmlns="http://www.w3.org/2000/svg">
<path d="M3.02813 17.6152H7V14.6027C7 14.4227 7.00562 14.2463 7.01687 14.0734C5.16875 12.3309 5.00125 10.034 5 7.63587C5 7.09774 5.415 6.63587 5.95312 6.61024C6.08807 6.60391 6.22291 6.62499 6.34949 6.6722C6.47607 6.71942 6.59177 6.79179 6.6896 6.88495C6.78744 6.97812 6.86539 7.09014 6.91873 7.21426C6.97208 7.33838 6.99973 7.47202 7 7.60712C7 9.35712 7.11625 10.6165 7.61875 11.5971C8.82 9.02524 11.73 7.60274 16 7.60274C18.4875 7.60274 20.6369 8.17337 22.2144 9.25212C23.1456 9.88899 23.8519 10.684 24.3206 11.6096C24.875 10.6477 25 9.41962 25 7.63587C25 7.09774 25.4125 6.63587 25.95 6.60837C26.0854 6.60159 26.2207 6.6224 26.3478 6.66953C26.4748 6.71667 26.591 6.78914 26.6892 6.88255C26.7874 6.97596 26.8656 7.08835 26.919 7.21291C26.9724 7.33747 27 7.47159 27 7.60712C27 9.95899 26.8369 12.2152 24.9725 13.959C24.9904 14.1698 24.9996 14.3844 25 14.6027V17.6152H28.9719C29.51 17.6152 29.9719 18.029 29.9987 18.5671C30.0053 18.7024 29.9842 18.8377 29.9369 18.9646C29.8896 19.0915 29.8169 19.2075 29.7234 19.3055C29.6299 19.4036 29.5175 19.4816 29.3929 19.5348C29.2683 19.588 29.1342 19.6154 28.9987 19.6152H24.9987V20.6071C24.9997 21.757 24.7792 22.8962 24.3494 23.9627C25.9537 25.3971 26.9887 26.9821 27 29.5659C27 30.1121 26.5862 30.5846 26.04 30.6065C25.9054 30.6119 25.7711 30.59 25.6452 30.5422C25.5192 30.4944 25.4042 30.4217 25.3071 30.3283C25.21 30.235 25.1327 30.123 25.0799 29.9991C25.0272 29.8751 25 29.7418 25 29.6071C25 27.8784 24.4312 26.8127 23.3644 25.7746C22.1341 27.5258 20.3214 28.7827 18.25 29.3209C18.1022 29.359 17.9477 29.3628 17.7982 29.3321C17.6488 29.3013 17.5083 29.2367 17.3877 29.1432C17.267 29.0498 17.1694 28.93 17.1022 28.7929C17.035 28.6559 17 28.5054 17 28.3527V12.6352C17 12.0971 16.5863 11.6352 16.0481 11.6084C15.9129 11.6019 15.7778 11.6229 15.6509 11.6701C15.5241 11.7174 15.4081 11.7899 15.3102 11.8833C15.2122 11.9766 15.1341 12.0889 15.0808 12.2134C15.0275 12.3378 15 12.4718 15 12.6071V28.3527C15 28.5054 14.965 28.6559 14.8978 28.7929C14.8306 28.93 14.733 29.0498 14.6123 29.1432C14.4917 29.2367 14.3512 29.3013 14.2018 29.3321C14.0523 29.3628 13.8978 29.359 13.75 29.3209C11.6789 28.7824 9.86649 27.5256 8.63625 25.7746C7.57375 26.8084 7.00563 27.8696 7.00063 29.584C7.00288 29.8426 6.90656 30.0923 6.73124 30.2823C6.55592 30.4724 6.31478 30.5885 6.05688 30.6071C5.92085 30.6149 5.78467 30.5947 5.6567 30.548C5.52874 30.5012 5.41167 30.4288 5.31271 30.3351C5.21374 30.2415 5.13495 30.1286 5.08118 30.0034C5.0274 29.8782 4.99978 29.7434 5 29.6071C5 27.0021 6.0375 25.4052 7.64938 23.9627C7.21955 22.8962 6.99908 21.757 7 20.6071V19.6152H3C2.86453 19.6154 2.73044 19.588 2.60587 19.5348C2.48129 19.4816 2.36884 19.4036 2.27532 19.3055C2.1818 19.2075 2.10918 19.0915 2.06185 18.9646C2.01452 18.8377 1.99348 18.7024 2 18.5671C2.02625 18.029 2.49 17.6152 3.02813 17.6152Z" fill="black"/>
<path d="M11.9131 6.5L11.8931 6.50562C11.045 6.74312 10.3262 5.84625 10.7556 5.0775C11.2745 4.14517 12.033 3.36835 12.9527 2.82731C13.8724 2.28628 14.9199 2.00067 15.9869 2H16.0131C17.0909 2.00073 18.1485 2.29215 19.0746 2.84355C20.0006 3.39496 20.7608 4.18592 21.275 5.13312C21.7025 5.91937 20.9537 6.82062 20.0975 6.56187C18.8656 6.18687 17.4856 5.99563 16 5.99563C14.4944 5.99563 13.1194 6.16563 11.9131 6.5Z" fill="black"/>
</svg>
